<svg aria-hidden="true" style="position: absolute; width: 0; height: 0; overflow: hidden;" version="1.1" xmlns="http://www.w3.org/2000/svg" xmlns:xlink="http://www.w3.org/1999/xlink">
<defs>
<symbol id="icon-tick" viewBox="0 0 34 32">
<path fill="none" stroke="#fff" style="stroke: var(--color1, #fff)" stroke-linejoin="round" stroke-linecap="round" stroke-miterlimit="4" stroke-width="2" d="M26.427 6.601c5.293 5.293 5.2 13.933-0.267 19.12-5.053 4.787-13.253 4.787-18.32 0-5.48-5.187-5.573-13.827-0.267-19.12 5.2-5.213 13.653-5.213 18.853 0z"></path>
<path fill="none" stroke="#fff" style="stroke: var(--color1, #fff)" stroke-linejoin="round" stroke-linecap="round" stroke-miterlimit="4" stroke-width="2" d="M11.333 16l3.773 3.773 7.56-7.547"></path>
</symbol>
<symbol id="icon-Vector-1" viewBox="0 0 34 32">
<path fill="#fff" style="fill: var(--color1, #fff)" d="M6.4 1.919c0-0.255 0.101-0.499 0.281-0.679s0.424-0.281 0.679-0.281h5.76c0.255 0 0.499 0.101 0.679 0.281s0.281 0.424 0.281 0.679v5.76c0 0.255-0.101 0.499-0.281 0.679s-0.424 0.281-0.679 0.281h-5.76c-0.255 0-0.499-0.101-0.679-0.281s-0.281-0.424-0.281-0.679v-5.76zM18.88 0.959c-0.255 0-0.499 0.101-0.679 0.281s-0.281 0.424-0.281 0.679v5.76c0 0.255 0.101 0.499 0.281 0.679s0.424 0.281 0.679 0.281h5.76c0.255 0 0.499-0.101 0.679-0.281s0.281-0.424 0.281-0.679v-5.76c0-0.255-0.101-0.499-0.281-0.679s-0.424-0.281-0.679-0.281h-5.76zM19.84 6.719v-3.84h3.84v3.84h-3.84zM8.32 10.559c-2.037 0-3.99 0.809-5.431 2.249s-2.249 3.394-2.249 5.431c0 2.037 0.809 3.99 2.249 5.431s3.394 2.249 5.431 2.249h6.157c-0.265-0.937-0.398-1.906-0.397-2.88 0-1.202 0.202-2.358 0.57-3.435-0.299-0.295-0.493-0.679-0.552-1.095s0.019-0.839 0.223-1.206c0.204-0.367 0.523-0.656 0.907-0.825s0.813-0.206 1.221-0.108c0.99-1.217 2.238-2.198 3.655-2.872s2.967-1.022 4.535-1.020c1.987 0 3.846 0.549 5.434 1.503-0.701-1.053-1.652-1.917-2.767-2.514s-2.361-0.91-3.626-0.909h-15.36zM8.32 20.159c-0.509 0-0.998-0.202-1.358-0.562s-0.562-0.848-0.562-1.358c0-0.509 0.202-0.998 0.562-1.358s0.848-0.562 1.358-0.562 0.998 0.202 1.358 0.562c0.36 0.36 0.562 0.848 0.562 1.358s-0.202 0.998-0.562 1.358c-0.36 0.36-0.848 0.562-1.358 0.562zM33.28 23.039c0 2.292-0.91 4.489-2.531 6.109s-3.818 2.531-6.109 2.531c-2.292 0-4.489-0.91-6.109-2.531s-2.531-3.818-2.531-6.109c0-2.292 0.91-4.489 2.531-6.109s3.818-2.531 6.109-2.531 4.489 0.91 6.109 2.531c1.62 1.62 2.531 3.818 2.531 6.109zM27.8 19.48l-5.080 5.082-1.24-1.242c-0.18-0.18-0.425-0.281-0.68-0.281s-0.499 0.101-0.68 0.281c-0.18 0.18-0.282 0.425-0.282 0.68s0.101 0.499 0.282 0.68l1.92 1.92c0.089 0.089 0.195 0.16 0.312 0.209s0.242 0.073 0.368 0.073 0.251-0.025 0.368-0.073c0.116-0.048 0.223-0.119 0.312-0.209l5.76-5.76c0.18-0.18 0.282-0.425 0.282-0.68s-0.101-0.499-0.282-0.68c-0.18-0.18-0.425-0.281-0.68-0.281s-0.499 0.101-0.68 0.281z"></path>
</symbol>
<symbol id="icon-Tech" viewBox="0 0 36 32">
<path fill="none" stroke="#fff" style="stroke: var(--color1, #fff)" stroke-linejoin="round" stroke-linecap="round" stroke-miterlimit="4" stroke-width="3.5556" d="M8.889 8.889l-7.111 7.111 7.111 7.111M26.667 8.889l7.111 7.111-7.111 7.111M21.333 1.778l-7.111 28.444"></path>
</symbol>
<symbol id="icon-Finance" viewBox="0 0 30 32">
<path fill="#fff" style="fill: var(--color1, #fff)" d="M8 15.6v-6.8c0-0.667 0.234-1.233 0.701-1.699s1.034-0.7 1.699-0.701c0.666-0.001 1.233 0.233 1.701 0.701s0.701 1.035 0.699 1.699v6.8c0 0.667-0.233 1.234-0.699 1.701s-1.033 0.7-1.701 0.699c-0.668-0.001-1.234-0.234-1.699-0.699s-0.699-1.032-0.701-1.701zM16 15.24v-12.84c0-0.667 0.234-1.233 0.701-1.699s1.034-0.7 1.699-0.701c0.666-0.001 1.232 0.233 1.701 0.701s0.701 1.035 0.699 1.699v12.84c0 0.8-0.246 1.4-0.739 1.8s-1.046 0.6-1.661 0.6c-0.614 0-1.168-0.2-1.659-0.6s-0.739-1-0.741-1.8zM0 20.76v-5.56c0-0.667 0.234-1.233 0.701-1.699s1.034-0.7 1.699-0.701c0.666-0.001 1.233 0.233 1.701 0.701s0.701 1.035 0.699 1.699v5.56c0 0.8-0.246 1.4-0.739 1.8s-1.046 0.6-1.661 0.6c-0.614 0-1.167-0.2-1.659-0.6s-0.739-1-0.741-1.8zM3.84 30.48c-0.693 0-1.18-0.326-1.461-0.979s-0.167-1.233 0.341-1.741l6.56-6.56c0.293-0.293 0.647-0.453 1.061-0.48s0.78 0.107 1.099 0.4l4.56 3.92 8.96-8.96h-0.96c-0.453 0-0.833-0.154-1.139-0.461s-0.46-0.687-0.461-1.139c-0.001-0.452 0.152-0.832 0.461-1.139s0.688-0.461 1.139-0.461h4.8c0.453 0 0.834 0.154 1.141 0.461s0.46 0.687 0.459 1.139v4.8c0 0.453-0.154 0.834-0.461 1.141s-0.687 0.46-1.139 0.459c-0.452-0.001-0.832-0.155-1.139-0.461s-0.461-0.686-0.461-1.139v-0.96l-10 10c-0.293 0.293-0.647 0.453-1.061 0.48s-0.78-0.107-1.099-0.4l-4.56-3.92-5.52 5.52c-0.133 0.133-0.3 0.247-0.499 0.341s-0.406 0.14-0.621 0.139z"></path>
</symbol>
<symbol id="icon-Education" viewBox="0 0 38 32">
<path fill="#fff" style="fill: var(--color1, #fff)" d="M19.2 16.001l-14.323-5.722 0.883 21.082h-3.84l0.922-21.907-2.842-1.133 19.2-7.68 19.2 7.68-19.2 7.68zM19.2 6.401c-1.056 0-1.92 0.422-1.92 0.96s0.864 0.96 1.92 0.96c1.056 0 1.92-0.422 1.92-0.96s-0.864-0.96-1.92-0.96zM19.2 17.921l10.694-4.282c1.363 1.805 2.304 3.974 2.611 6.336-0.576-0.077-1.171-0.134-1.786-0.134-4.896 0-9.178 2.63-11.52 6.547-1.19-1.995-2.876-3.647-4.896-4.794s-4.302-1.752-6.624-1.753c-0.614 0-1.21 0.058-1.786 0.134 0.307-2.362 1.248-4.531 2.611-6.336l10.694 4.282z"></path>
</symbol>
<symbol id="icon-Analytics" viewBox="0 0 32 32">
<path fill="#fff" style="fill: var(--color1, #fff)" d="M15 3.66c0-0.155-0.133-0.277-0.288-0.261-3.12 0.319-6.011 1.784-8.113 4.112s-3.266 5.353-3.266 8.489c0 2.509 0.745 4.962 2.141 7.047s3.38 3.709 5.7 4.664c2.32 0.956 4.872 1.201 7.332 0.705s4.717-1.713 6.484-3.494c0.026-0.026 0.046-0.057 0.059-0.092s0.019-0.071 0.016-0.108c-0.002-0.037-0.012-0.073-0.029-0.105s-0.040-0.061-0.069-0.084l-9.596-7.756c-0.116-0.094-0.21-0.212-0.274-0.347s-0.098-0.282-0.098-0.431v-12.34z"></path>
<path fill="#fff" style="fill: var(--color1, #fff)" d="M26.227 22.978c0.12 0.097 0.299 0.072 0.384-0.059 1.106-1.691 1.789-3.623 1.992-5.633 0.003-0.036-0.001-0.073-0.013-0.108s-0.031-0.067-0.055-0.094c-0.025-0.027-0.055-0.049-0.088-0.063s-0.070-0.022-0.106-0.022h-8.757c-0.055 0-0.109 0.017-0.153 0.049s-0.079 0.077-0.097 0.129-0.020 0.108-0.005 0.161c0.015 0.053 0.046 0.1 0.088 0.135l6.812 5.505zM28.34 15c0.155 0 0.277-0.133 0.263-0.288-0.296-2.9-1.583-5.609-3.645-7.67s-4.77-3.348-7.67-3.644c-0.037-0.004-0.073 0.001-0.108 0.012s-0.067 0.030-0.094 0.055c-0.027 0.025-0.049 0.055-0.063 0.089s-0.022 0.070-0.022 0.107v10.94c0 0.106 0.042 0.208 0.117 0.283s0.177 0.117 0.283 0.117h10.94z"></path>
</symbol>
<symbol id="icon-Marketing" viewBox="0 0 22 32">
<path fill="#fff" style="fill: var(--color1, #fff)" d="M11.2 0c-2.97 0-5.819 1.18-7.92 3.28s-3.28 4.949-3.28 7.92c0 3.808 1.904 7.152 4.8 9.184v3.616c0 0.424 0.169 0.831 0.469 1.131s0.707 0.469 1.131 0.469h9.6c0.424 0 0.831-0.169 1.131-0.469s0.469-0.707 0.469-1.131v-3.616c2.896-2.032 4.8-5.376 4.8-9.184 0-2.97-1.18-5.819-3.28-7.92s-4.949-3.28-7.92-3.28zM6.4 30.4c0 0.424 0.169 0.831 0.469 1.131s0.707 0.469 1.131 0.469h6.4c0.424 0 0.831-0.169 1.131-0.469s0.469-0.707 0.469-1.131v-1.6h-9.6v1.6z"></path>
</symbol>
<symbol id="icon-Arrow" viewBox="0 0 56 32">
<path fill="#fff" style="fill: var(--color1, #fff)" d="M49.68 1.808l4.24 4.244-23.108 23.116c-0.37 0.373-0.811 0.668-1.296 0.87s-1.005 0.306-1.53 0.306c-0.525 0-1.045-0.104-1.53-0.306s-0.925-0.498-1.296-0.87l-23.12-23.116 4.24-4.24 21.7 21.696 21.7-21.7z"></path>
</symbol>
<symbol id="icon-burger" viewBox="0 0 41 32">
<path fill="none" stroke="#fff" style="stroke: var(--color1, #fff)" stroke-linejoin="round" stroke-linecap="round" stroke-miterlimit="4" stroke-width="4.5714" d="M2.286 2.286h36.571M9.143 16h29.714M16 29.714h22.857"></path>
</symbol>
<symbol id="icon-Vector-8" viewBox="0 0 32 32">
<path fill="#fff" style="fill: var(--color1, #fff); stroke: var(--color1, #fff)" stroke="#fff" stroke-linejoin="round" stroke-linecap="round" stroke-miterlimit="4" stroke-width="3.2" d="M16 12.8c0.735 0 1.464-0.145 2.143-0.426s1.297-0.694 1.817-1.214c0.52-0.52 0.932-1.137 1.214-1.817s0.426-1.408 0.426-2.143-0.145-1.464-0.426-2.143c-0.281-0.679-0.694-1.297-1.214-1.817s-1.137-0.933-1.817-1.214c-0.68-0.281-1.408-0.426-2.143-0.426-1.485 0-2.91 0.59-3.96 1.64s-1.64 2.475-1.64 3.96c0 1.485 0.59 2.91 1.64 3.96s2.475 1.64 3.96 1.64zM1.6 29.44v0.96h28.8v-0.96c0-3.584 0-5.376-0.698-6.746-0.614-1.204-1.593-2.183-2.797-2.797-1.37-0.698-3.162-0.698-6.746-0.698h-8.32c-3.584 0-5.376 0-6.746 0.698-1.204 0.614-2.183 1.593-2.797 2.797-0.698 1.37-0.698 3.162-0.698 6.746z"></path>
</symbol>
<symbol id="icon-close" viewBox="0 0 32 32">
<path   d="M2.115 2.116c0.5-0.5 1.178-0.781 1.885-0.781s1.385 0.281 1.885 0.781l10.115 10.115 10.115-10.115c0.246-0.255 0.54-0.458 0.866-0.598s0.675-0.213 1.029-0.216c0.354-0.003 0.705 0.064 1.033 0.198s0.625 0.332 0.876 0.582c0.25 0.25 0.449 0.548 0.583 0.876s0.201 0.679 0.198 1.033c-0.003 0.354-0.077 0.704-0.217 1.029s-0.343 0.62-0.598 0.866l-10.115 10.115 10.115 10.115c0.486 0.503 0.755 1.177 0.749 1.876s-0.286 1.368-0.781 1.862c-0.494 0.494-1.163 0.775-1.862 0.781s-1.373-0.263-1.876-0.748l-10.115-10.115-10.115 10.115c-0.503 0.486-1.177 0.754-1.876 0.748s-1.368-0.286-1.862-0.781-0.775-1.163-0.781-1.862c-0.006-0.699 0.263-1.373 0.748-1.876l10.115-10.115-10.115-10.115c-0.5-0.5-0.781-1.178-0.781-1.885s0.281-1.385 0.781-1.885z"></path>
</symbol>
<symbol id="icon-logo" viewBox="0 0 32 32">
<path fill="#fff" style="fill: var(--color1, #fff)" d="M23.333 3.667c0.265 0 0.52 0.105 0.707 0.293s0.293 0.442 0.293 0.707v3h3c0.265 0 0.52 0.105 0.707 0.293s0.293 0.442 0.293 0.707-0.105 0.52-0.293 0.707c-0.187 0.188-0.442 0.293-0.707 0.293h-3v3c0 0.265-0.105 0.52-0.293 0.707s-0.442 0.293-0.707 0.293-0.52-0.105-0.707-0.293c-0.188-0.188-0.293-0.442-0.293-0.707v-3h-3c-0.265 0-0.52-0.105-0.707-0.293s-0.293-0.442-0.293-0.707 0.105-0.52 0.293-0.707c0.187-0.188 0.442-0.293 0.707-0.293h3v-3c0-0.265 0.105-0.52 0.293-0.707s0.442-0.293 0.707-0.293z"></path>
<path fill="#fff" style="fill: var(--color1, #fff)" d="M2.667 8.667c0-2.828 0-4.243 0.879-5.121s2.293-0.879 5.121-0.879c2.828 0 4.243 0 5.121 0.879s0.879 2.293 0.879 5.121c0 2.828 0 4.243-0.879 5.121s-2.293 0.879-5.121 0.879c-2.828 0-4.243 0-5.121-0.879s-0.879-2.293-0.879-5.121zM17.333 23.333c0-2.828 0-4.243 0.879-5.121s2.293-0.879 5.121-0.879c2.828 0 4.243 0 5.121 0.879s0.879 2.293 0.879 5.121c0 2.828 0 4.243-0.879 5.121s-2.293 0.879-5.121 0.879c-2.828 0-4.243 0-5.121-0.879s-0.879-2.293-0.879-5.121z"></path>
<path fill="#fff" style="fill: var(--color1, #fff)" opacity="0.5" d="M2.667 23.333c0-2.828 0-4.243 0.879-5.121s2.293-0.879 5.121-0.879c2.828 0 4.243 0 5.121 0.879s0.879 2.293 0.879 5.121c0 2.828 0 4.243-0.879 5.121s-2.293 0.879-5.121 0.879c-2.828 0-4.243 0-5.121-0.879s-0.879-2.293-0.879-5.121z"></path>
</symbol>
<symbol id="icon-star" viewBox="0 0 32 32">
<path fill="#fff" style="fill: var(--color1, #fff)" d="M16 3.465l-4 13.067-9.333 10 13.333-3.067 13.333 3.2-9.333-10-4-13.2z"></path>
</symbol>
<symbol id="icon-people" viewBox="0 0 32 32">
<path fill="#fff" style="fill: var(--color1, #fff); stroke: var(--color1, #fff)" opacity="0.85" stroke="#fff" stroke-linejoin="round" stroke-linecap="round" stroke-miterlimit="4" stroke-width="2.6667" d="M16 13.333c0.613 0 1.22-0.121 1.786-0.355s1.081-0.578 1.514-1.012c0.433-0.433 0.777-0.948 1.012-1.514s0.355-1.173 0.355-1.786c0-0.613-0.121-1.22-0.355-1.786s-0.578-1.081-1.012-1.514c-0.433-0.433-0.948-0.777-1.514-1.012s-1.173-0.355-1.786-0.355c-1.238 0-2.425 0.492-3.3 1.367s-1.367 2.062-1.367 3.3c0 1.238 0.492 2.425 1.367 3.3s2.062 1.367 3.3 1.367zM4 27.2v0.8h24v-0.8c0-2.987 0-4.48-0.581-5.621-0.511-1.003-1.327-1.819-2.331-2.331-1.141-0.581-2.635-0.581-5.621-0.581h-6.933c-2.987 0-4.48 0-5.621 0.581-1.003 0.511-1.819 1.327-2.331 2.331-0.581 1.141-0.581 2.635-0.581 5.621z"></path>
</symbol>
<symbol id="icon-right" viewBox="0 0 44 32">
<path fill="none" stroke="#fff" style="stroke: var(--color1, #fff)" stroke-linejoin="miter" stroke-linecap="butt" stroke-miterlimit="4" stroke-width="4" d="M0.084 15.916h40M27.084 29.916l14-14-14-14"></path>
</symbol>
<symbol id="icon-Vector-12" viewBox="0 0 36 32">
<path fill="#fff" style="fill: var(--color1, #fff)" d="M4.247 11.057l1.2 2.097c0.764 1.338 1.145 2.006 1.145 2.74s-0.381 1.402-1.145 2.737l-1.2 2.1c-3.416 5.98-5.124 8.968-3.794 10.453 1.333 1.482 4.49 0.102 10.798-2.657l17.318-7.577c4.953-2.166 7.431-3.251 7.431-5.055s-2.478-2.889-7.431-5.055l-17.318-7.577c-6.308-2.759-9.465-4.139-10.798-2.657s0.378 4.47 3.794 10.453z"></path>
</symbol>
<symbol id="icon-settings-bold" viewBox="0 0 32 32">
<path fill="#fff" style="fill: var(--color2, #fff)" d="M19.039 2.869c0.325 0.133 0.621 0.329 0.871 0.577s0.447 0.543 0.582 0.867c0.125 0.297 0.173 0.644 0.193 1.151 0.009 0.366 0.112 0.723 0.297 1.039s0.448 0.579 0.763 0.765c0.322 0.179 0.684 0.274 1.052 0.276s0.731-0.089 1.055-0.265c0.451-0.237 0.777-0.368 1.1-0.411 0.706-0.092 1.42 0.098 1.987 0.528 0.424 0.324 0.736 0.861 1.363 1.937s0.939 1.615 1.009 2.14c0.045 0.348 0.022 0.701-0.070 1.039s-0.248 0.655-0.462 0.933c-0.199 0.256-0.477 0.471-0.909 0.741-0.635 0.395-1.043 1.069-1.043 1.813s0.408 1.419 1.044 1.815c0.431 0.269 0.709 0.484 0.907 0.74 0.214 0.277 0.371 0.595 0.463 0.933s0.115 0.691 0.070 1.039c-0.071 0.527-0.383 1.064-1.009 2.14-0.625 1.076-0.939 1.615-1.363 1.937-0.565 0.431-1.28 0.621-1.987 0.528-0.323-0.043-0.649-0.173-1.1-0.411-0.323-0.176-0.686-0.267-1.054-0.265s-0.73 0.097-1.051 0.275c-0.649 0.372-1.035 1.060-1.061 1.804-0.020 0.507-0.068 0.853-0.193 1.151-0.135 0.325-0.333 0.619-0.582 0.867s-0.545 0.444-0.871 0.577c-0.493 0.203-1.12 0.203-2.372 0.203s-1.879 0-2.372-0.203c-0.659-0.271-1.181-0.791-1.453-1.444-0.125-0.297-0.173-0.644-0.193-1.151-0.028-0.744-0.412-1.431-1.060-1.804-0.322-0.179-0.684-0.274-1.052-0.276s-0.731 0.089-1.055 0.265c-0.451 0.237-0.777 0.368-1.1 0.411-0.707 0.092-1.421-0.097-1.987-0.528-0.424-0.324-0.736-0.861-1.363-1.937s-0.939-1.615-1.009-2.14c-0.045-0.348-0.022-0.701 0.070-1.039s0.248-0.655 0.462-0.933c0.199-0.256 0.477-0.471 0.909-0.741 0.635-0.395 1.043-1.069 1.043-1.813s-0.408-1.419-1.044-1.815c-0.431-0.269-0.709-0.484-0.907-0.74-0.435-0.561-0.627-1.271-0.533-1.972 0.071-0.527 0.383-1.064 1.009-2.14 0.625-1.076 0.939-1.615 1.363-1.937 0.567-0.43 1.281-0.62 1.987-0.528 0.323 0.043 0.649 0.173 1.1 0.411 0.323 0.176 0.686 0.267 1.054 0.265s0.73-0.097 1.051-0.275c0.315-0.186 0.578-0.449 0.764-0.765s0.288-0.673 0.298-1.039c0.020-0.505 0.068-0.853 0.193-1.151 0.135-0.325 0.333-0.619 0.583-0.867s0.545-0.444 0.871-0.577c0.495-0.203 1.12-0.203 2.372-0.203s1.879 0 2.372 0.203zM16.667 20c2.227 0 4.031-1.791 4.031-4s-1.805-4-4.031-4c-2.225 0-4.031 1.791-4.031 4s1.805 4 4.031 4z"></path>
</symbol>
<symbol id="icon-prime_search" viewBox="0 0 32 32">
<path fill="#fff" style="fill: var(--color1, #fff)" opacity="0.4" d="M14.36 24.4c-1.986 0-3.927-0.589-5.578-1.692s-2.938-2.671-3.698-4.506c-0.76-1.835-0.959-3.853-0.571-5.801s1.344-3.737 2.748-5.141c1.404-1.404 3.193-2.36 5.141-2.748s3.966-0.189 5.801 0.571c1.835 0.76 3.403 2.047 4.506 3.698s1.692 3.592 1.692 5.578c0 1.318-0.26 2.624-0.764 3.842s-1.244 2.325-2.176 3.257c-0.932 0.932-2.039 1.672-3.257 2.176s-2.524 0.764-3.842 0.764zM14.36 6.333c-1.582 0-3.129 0.469-4.445 1.348s-2.341 2.128-2.946 3.59c-0.606 1.462-0.764 3.070-0.455 4.622s1.071 2.977 2.189 4.096c1.119 1.119 2.544 1.881 4.096 2.189s3.16 0.15 4.622-0.455c1.462-0.605 2.711-1.631 3.59-2.946s1.348-2.862 1.348-4.445c0-2.122-0.843-4.157-2.343-5.657s-3.535-2.343-5.657-2.343z"></path>
<path fill="#fff" style="fill: var(--color1, #fff)" opacity="0.4" d="M26.667 27.667c-0.131 0.001-0.262-0.025-0.383-0.075s-0.231-0.124-0.324-0.218l-5.507-5.507c-0.177-0.19-0.273-0.44-0.268-0.699s0.109-0.506 0.293-0.689c0.183-0.183 0.43-0.288 0.689-0.293s0.51 0.092 0.699 0.268l5.507 5.507c0.187 0.188 0.292 0.442 0.292 0.707s-0.105 0.519-0.292 0.707c-0.092 0.094-0.202 0.168-0.324 0.218s-0.252 0.076-0.383 0.075z"></path>
</symbol>
<symbol id="icon-logout" viewBox="0 0 32 32">
<path fill="none" stroke="#ff3d00" style="stroke: var(--color1, #ff3d00)" stroke-linejoin="round" stroke-linecap="round" stroke-miterlimit="4" stroke-width="2" d="M13.333 16h13.333M26.667 16l-4-4M26.667 16l-4 4"></path>
<path fill="none" stroke="#ff3d00" style="stroke: var(--color1, #ff3d00)" stroke-linejoin="miter" stroke-linecap="round" stroke-miterlimit="4" stroke-width="2" d="M5.333 16c0-2.829 1.124-5.542 3.124-7.542s4.713-3.124 7.542-3.124M16 26.667c-1.599 0.001-3.178-0.358-4.619-1.051s-2.709-1.701-3.707-2.949"></path>
</symbol>
<symbol id="icon-ph_eye-fill" viewBox="0 0 34 32">
<path fill="#fff" style="fill: var(--color1, #fff)" d="M31.803 15.595c-0.044-0.099-1.103-2.447-3.456-4.801-3.136-3.136-7.097-4.794-11.457-4.794s-8.321 1.657-11.457 4.794c-2.354 2.354-3.417 4.706-3.456 4.801-0.057 0.128-0.086 0.266-0.086 0.406s0.029 0.278 0.086 0.406c0.044 0.099 1.103 2.446 3.456 4.8 3.136 3.135 7.098 4.793 11.457 4.793s8.321-1.657 11.457-4.793c2.354-2.354 3.413-4.701 3.456-4.8 0.057-0.128 0.086-0.266 0.086-0.406s-0.029-0.278-0.086-0.406zM16.889 21c-0.989 0-1.956-0.293-2.778-0.843s-1.463-1.33-1.842-2.244c-0.378-0.914-0.477-1.919-0.285-2.889s0.669-1.861 1.368-2.56c0.699-0.699 1.59-1.175 2.56-1.368s1.975-0.094 2.889 0.285c0.914 0.378 1.695 1.019 2.244 1.842s0.843 1.789 0.843 2.778c0 1.326-0.527 2.598-1.465 3.535s-2.209 1.465-3.535 1.465z"></path>
</symbol>
<symbol id="icon-solar_star-shine" viewBox="0 0 33 32">
<path fill="#fff" style="fill: var(--color1, #fff)" d="M14.547 11.605c0.844-1.515 1.267-2.272 1.897-2.272s1.053 0.757 1.897 2.272l0.219 0.392c0.24 0.431 0.36 0.645 0.547 0.787 0.187 0.143 0.421 0.196 0.887 0.301l0.424 0.096c1.64 0.371 2.46 0.556 2.655 1.184 0.196 0.627-0.364 1.28-1.481 2.588l-0.289 0.339c-0.317 0.371-0.476 0.557-0.547 0.787-0.073 0.229-0.049 0.477 0 0.973l0.043 0.451c0.169 1.744 0.253 2.616-0.257 3.004-0.511 0.387-1.277 0.035-2.813-0.672l-0.397-0.184c-0.436-0.2-0.653-0.301-0.885-0.301-0.231 0-0.449 0.101-0.885 0.301l-0.397 0.184c-1.536 0.707-2.303 1.060-2.813 0.672-0.511-0.387-0.427-1.26-0.257-3.004l0.043-0.451c0.049-0.496 0.073-0.744 0-0.973-0.071-0.229-0.229-0.416-0.547-0.787l-0.289-0.339c-1.117-1.307-1.677-1.96-1.481-2.588 0.195-0.627 1.013-0.813 2.653-1.184l0.425-0.096c0.467-0.107 0.699-0.159 0.887-0.3 0.187-0.143 0.307-0.357 0.547-0.787l0.219-0.393z"></path>
<path fill="#fff" style="fill: var(--color1, #fff)" opacity="0.8" d="M16.444 1.667c0.265 0 0.52 0.105 0.707 0.293s0.293 0.442 0.293 0.707v2.667c0 0.265-0.105 0.52-0.293 0.707s-0.442 0.293-0.707 0.293c-0.265 0-0.519-0.105-0.707-0.293s-0.293-0.442-0.293-0.707v-2.667c0-0.265 0.105-0.52 0.293-0.707s0.442-0.293 0.707-0.293zM2.111 16c0-0.265 0.105-0.52 0.293-0.707s0.442-0.293 0.707-0.293h2.667c0.265 0 0.52 0.105 0.707 0.293s0.293 0.442 0.293 0.707-0.105 0.52-0.293 0.707c-0.188 0.188-0.442 0.293-0.707 0.293h-2.667c-0.265 0-0.52-0.105-0.707-0.293s-0.293-0.442-0.293-0.707zM26.111 16c0-0.265 0.105-0.52 0.293-0.707s0.442-0.293 0.707-0.293h2.667c0.265 0 0.52 0.105 0.707 0.293s0.293 0.442 0.293 0.707-0.105 0.52-0.293 0.707c-0.188 0.188-0.442 0.293-0.707 0.293h-2.667c-0.265 0-0.519-0.105-0.707-0.293s-0.293-0.442-0.293-0.707zM16.444 25.667c0.265 0 0.52 0.105 0.707 0.293s0.293 0.442 0.293 0.707v2.667c0 0.265-0.105 0.52-0.293 0.707s-0.442 0.293-0.707 0.293c-0.265 0-0.519-0.105-0.707-0.293s-0.293-0.442-0.293-0.707v-2.667c0-0.265 0.105-0.52 0.293-0.707s0.442-0.293 0.707-0.293z"></path>
<path fill="#fff" style="fill: var(--color1, #fff)" opacity="0.5" d="M25.151 7.292c0.187 0.188 0.292 0.442 0.292 0.707s-0.105 0.519-0.292 0.707l-0.457 0.459c-0.189 0.182-0.441 0.283-0.704 0.28s-0.513-0.108-0.698-0.293-0.29-0.436-0.293-0.699c-0.002-0.262 0.099-0.515 0.281-0.703l0.457-0.457c0.187-0.187 0.442-0.292 0.707-0.292s0.519 0.105 0.707 0.292zM7.738 7.292c0.188-0.187 0.442-0.292 0.707-0.292s0.519 0.105 0.707 0.292l0.459 0.457c0.182 0.189 0.283 0.441 0.28 0.704s-0.108 0.513-0.293 0.698c-0.185 0.185-0.436 0.29-0.699 0.293s-0.515-0.099-0.703-0.281l-0.457-0.457c-0.187-0.188-0.292-0.442-0.292-0.707s0.105-0.519 0.292-0.707zM9.608 22.835c0.187 0.188 0.292 0.442 0.292 0.707s-0.105 0.519-0.292 0.707l-0.457 0.457c-0.19 0.177-0.44 0.273-0.699 0.268s-0.506-0.109-0.689-0.293c-0.183-0.183-0.288-0.43-0.293-0.689s0.092-0.51 0.268-0.699l0.457-0.457c0.188-0.187 0.442-0.292 0.707-0.292s0.519 0.105 0.707 0.292zM23.281 22.835c0.187-0.187 0.442-0.292 0.707-0.292s0.519 0.105 0.707 0.292l0.457 0.457c0.177 0.19 0.273 0.44 0.268 0.699s-0.109 0.506-0.293 0.689c-0.183 0.183-0.43 0.288-0.689 0.293s-0.51-0.092-0.699-0.268l-0.457-0.457c-0.187-0.187-0.293-0.442-0.293-0.707s0.105-0.519 0.293-0.707z"></path>
</symbol>
<symbol id="icon-mage_users" viewBox="0 0 34 32">
<path fill="#fff" style="fill: var(--color1, #fff)" d="M29.583 24.972c-0.061 0.408-0.217 0.796-0.453 1.133-0.236 0.332-0.548 0.602-0.91 0.788s-0.764 0.281-1.17 0.279h-2.201c-0.157-0-0.311-0.038-0.45-0.11s-0.259-0.176-0.35-0.303c-0.092-0.127-0.153-0.274-0.179-0.429s-0.014-0.314 0.032-0.464c0.493-1.573 0.387-3.347-4.081-6.187-0.182-0.119-0.322-0.293-0.398-0.497s-0.087-0.426-0.028-0.636c0.063-0.207 0.189-0.388 0.362-0.517s0.382-0.2 0.598-0.203c1.907 0.026 3.768 0.589 5.37 1.624s2.879 2.501 3.686 4.229c0.164 0.41 0.224 0.855 0.173 1.293zM26.248 10.265c-0.004 1.562-0.626 3.059-1.731 4.164s-2.602 1.726-4.164 1.73c-0.175-0.003-0.346-0.052-0.497-0.141s-0.276-0.216-0.363-0.367c-0.087-0.152-0.134-0.323-0.135-0.498s0.043-0.347 0.128-0.5c0.816-1.305 1.249-2.814 1.249-4.353s-0.433-3.048-1.249-4.353c-0.104-0.149-0.166-0.325-0.178-0.507s0.026-0.364 0.109-0.526c0.084-0.162 0.21-0.298 0.366-0.393s0.334-0.146 0.517-0.147c0.781-0.002 1.553 0.155 2.271 0.463s1.365 0.758 1.902 1.324c1.097 1.107 1.715 2.601 1.721 4.16l0.053-0.053z"></path>
<path fill="#fff" style="fill: var(--color1, #fff)" d="M22.5 24.934c0.054 0.653-0.075 1.308-0.371 1.891s-0.75 1.074-1.309 1.415c-0.557 0.343-1.2 0.523-1.853 0.52h-12.497c-0.654 0.003-1.296-0.177-1.853-0.52-0.56-0.339-1.014-0.829-1.309-1.414s-0.42-1.241-0.36-1.893c0.048-0.651 0.279-1.275 0.667-1.8 1.063-1.415 2.432-2.57 4.005-3.381s3.309-1.255 5.077-1.299c1.775 0.035 3.519 0.474 5.099 1.282s2.956 1.966 4.024 3.384c0.388 0.531 0.625 1.158 0.681 1.813zM19.26 9.761c-0.004 1.733-0.693 3.395-1.918 4.622s-2.885 1.919-4.618 1.925c-0.965-0.002-1.918-0.218-2.789-0.633s-1.641-1.016-2.252-1.763c-0.611-0.747-1.050-1.62-1.284-2.556s-0.258-1.913-0.070-2.859c0.189-0.947 0.585-1.84 1.16-2.615s1.315-1.414 2.167-1.869c0.851-0.455 1.793-0.716 2.758-0.764s1.927 0.119 2.819 0.488c1.193 0.493 2.214 1.328 2.933 2.4s1.104 2.333 1.107 3.624h-0.012z"></path>
</symbol>
<symbol id="icon-google" viewBox="0 0 32 32">
<path fill="#ffc107" style="fill: var(--color1, #ffc107)" d="M29.076 13.389h-1.074v-0.055h-12v5.333h7.535c-1.099 3.105-4.053 5.333-7.535 5.333-4.418 0-8-3.582-8-8s3.582-8 8-8c2.039 0 3.895 0.769 5.307 2.026l3.771-3.771c-2.381-2.219-5.567-3.588-9.079-3.588-7.363 0-13.333 5.97-13.333 13.333s5.97 13.333 13.333 13.333c7.363 0 13.333-5.97 13.333-13.333 0-0.894-0.092-1.767-0.259-2.611z"></path>
<path fill="#ff3d00" style="fill: var(--color2, #ff3d00)" d="M4.205 9.795l4.381 3.213c1.185-2.935 4.056-5.007 7.415-5.007 2.039 0 3.895 0.769 5.307 2.026l3.771-3.771c-2.381-2.219-5.567-3.588-9.079-3.588-5.121 0-9.563 2.891-11.796 7.127z"></path>
<path fill="#4caf50" style="fill: var(--color3, #4caf50)" d="M16.001 29.334c3.444 0 6.573-1.318 8.939-3.461l-4.127-3.492c-1.384 1.052-3.074 1.621-4.813 1.62-3.468 0-6.413-2.211-7.522-5.297l-4.348 3.35c2.207 4.318 6.688 7.281 11.87 7.281z"></path>
<path fill="#1976d2" style="fill: var(--color4, #1976d2)" d="M29.074 13.389h-1.074v-0.055h-12v5.333h7.535c-0.526 1.478-1.473 2.769-2.725 3.714l0.002-0.001 4.127 3.492c-0.292 0.265 4.394-3.205 4.394-9.871 0-0.894-0.092-1.767-0.259-2.611z"></path>
</symbol>
<symbol id="icon-error" viewBox="0 0 32 32">
<path fill="#f04438" style="fill: var(--color1, #f04438)" d="M8.929 8.929c-1.151 1.15-2.004 2.563-2.485 4.117-1.484 0.524-2.734 1.555-3.531 2.912s-1.087 2.952-0.821 4.502c0.266 1.551 1.072 2.957 2.275 3.971s2.726 1.569 4.3 1.568h16c1.297-0.004 2.548-0.481 3.519-1.34s1.596-2.043 1.758-3.33-0.15-2.588-0.878-3.662c-0.728-1.073-1.822-1.845-3.077-2.17-0.097-1.933-0.753-3.796-1.888-5.363s-2.7-2.772-4.506-3.467-3.775-0.852-5.668-0.451c-1.893 0.401-3.629 1.343-4.997 2.712zM16 17.333c-0.354 0-0.693-0.14-0.943-0.391s-0.391-0.589-0.391-0.943v-4c0-0.354 0.14-0.693 0.391-0.943s0.589-0.391 0.943-0.391c0.354 0 0.693 0.14 0.943 0.391s0.391 0.589 0.391 0.943v4c0 0.354-0.14 0.693-0.391 0.943s-0.589 0.391-0.943 0.391zM14 20.666c0-0.53 0.211-1.039 0.586-1.414s0.884-0.586 1.414-0.586c0.53 0 1.039 0.211 1.414 0.586s0.586 0.884 0.586 1.414c0 0.53-0.211 1.039-0.586 1.414s-0.884 0.586-1.414 0.586-1.039-0.211-1.414-0.586c-0.375-0.375-0.586-0.884-0.586-1.414z"></path>
</symbol>
</defs>
</svg>